# xmcd
#
# Track frame offsets:
#	150
#	13060
#	24165
#	45188
#	55059
#	65996
#	78823
#	89642
#	101694
#	114931
#	128462
#	142059
#	154195
#	164687
#	175739
#	187843
#
# Disc length: 2643 seconds
#
# Revision: 1
# Processed by: cddbd v1.5.2PL0 Copyright (c) Steve Scherf et al.
# Submitted via: audiograbber 1.83.01
#
DISCID=c70a5110
DTITLE=Various Artist - Golden Age of Country: Honky Tonk Man [Disc 1]
DYEAR=2009
DGENRE=Country
TTITLE0=Johnny Cash - Folsom Prison Blues
TTITLE1=Don Gibson - Oh Lonesome Me
TTITLE2=Marty Robbins - El Paso
TTITLE3=Elvis Presley - Heartbreak Hotel
TTITLE4=Charlie Walker - Pick Me Up on Your Way Down
TTITLE5=Bobby Dare - Detroit City
TTITLE6=Jim Reeves - He'll Have to Go
TTITLE7=Eddy Arnold - Make the World Go Away
TTITLE8=Carl Butler and Pearl - Don't Let Me Cross Over
TTITLE9=Claude King - Wolverton Mountain
TTITLE10=Jimmy Dean - Big Bad John
TTITLE11=Tammy Wynette - Stand by Your Man
TTITLE12=Billy Walker - Charlie's Shoes
TTITLE13=The Statler Brothers - Flowers on the Wall
TTITLE14=Henson Cargill - Skip a Rope
TTITLE15=Charley Pride - Does My Ring Hurt Your Finger
EXTD=
EXTT0=
EXTT1=
EXTT2=
EXTT3=
EXTT4=
EXTT5=
EXTT6=
EXTT7=
EXTT8=
EXTT9=
EXTT10=
EXTT11=
EXTT12=
EXTT13=
EXTT14=
EXTT15=
PLAYORDER=
